<svg xmlns="http://www.w3.org/2000/svg" viewBox="0 0 1000 340" width="1000" height="340" role="img" aria-labelledby="t d"><title id="t">Madhur Rishi Sikarwar</title><desc id="d">Madhur Rishi Sikarwar, information science student at RVCE. Building systems that survive the real world: firmware, backend, ML, interface.</desc><defs><radialGradient id="shade1" cx=".34" cy=".3" r=".9"><stop offset="0" stop-color="#9ad1e0" stop-opacity=".10"/><stop offset=".6" stop-color="#000" stop-opacity="0"/><stop offset="1" stop-color="#000" stop-opacity=".45"/></radialGradient><clipPath id="front10"><polygon points="1350.9,396.2 233.1,-40.2 451.3,-599.1 1569.1,-162.7"/></clipPath><clipPath id="front11"><polygon points="587.9,742.2 996.1,-386.2 431.8,-590.3 23.7,538.2"/></clipPath><clipPath id="front12"><polygon points="1364.6,-1.3 219.4,357.3 398.7,929.9 1543.9,571.3"/></clipPath><radialGradient id="glow" cx=".79" cy=".52" r=".55"><stop offset="0" stop-color="#9ad1e0" stop-opacity=".09"/><stop offset="1" stop-color="#9ad1e0" stop-opacity="0"/></radialGradient><style>text{font-family:'SF Pro Display','Segoe UI Variable Display','Segoe UI',Inter,Roboto,'Helvetica Neue',Arial,sans-serif;fill:#e8ecf1}.m{font-family:'SF Mono','Cascadia Code','JetBrains Mono',Consolas,Menlo,monospace}.pulse{animation:pulse 2.6s ease-in-out infinite}@keyframes pulse{0%,100%{opacity:1}50%{opacity:.3}}.ring{transform-box:fill-box;transform-origin:center;animation:ring 3.4s ease-out infinite}@keyframes ring{0%{transform:scale(.55);opacity:.95}100%{transform:scale(1.8);opacity:0}}.sat{animation:orb linear infinite}@keyframes orb{from{offset-distance:0%}to{offset-distance:100%}}@media (prefers-reduced-motion:reduce){.pulse,.ring,.sat{animation:none}}@keyframes ca{0%{transform:translate(-42px,12px)}60%,70%{transform:translate(0,0)}100%{transform:translate(42px,-12px)}}.ca{animation:ca 8s ease-in-out infinite}@keyframes cb{0%{transform:translate(42px,-12px)}60%,70%{transform:translate(0,0)}100%{transform:translate(-42px,12px)}}.cb{animation:cb 8s ease-in-out infinite}@keyframes cr{0%,58%{opacity:0;transform:scale(.4)}62%{opacity:1}82%{opacity:0;transform:scale(2.4)}100%{opacity:0}}.cring{transform-box:fill-box;transform-origin:center;animation:cr 8s ease-out infinite;opacity:0}@keyframes dr1{from{transform:translateX(0)}to{transform:translateX(-26px)}}.dr1{animation:dr1 60s ease-in-out infinite alternate}@keyframes dr2{from{transform:translateX(0)}to{transform:translateX(-60px)}}.dr2{animation:dr2 60s ease-in-out infinite alternate}@keyframes bt{0%{opacity:0}4%{opacity:1}62%{opacity:1}78%{opacity:0}100%{opacity:0}}.bt{opacity:0;animation:bt 2.3s linear both}@keyframes rev{from{opacity:0;transform:translateY(12px)}to{opacity:1;transform:none}}.rv{animation:rev .9s ease-out backwards}@keyframes cd0{0%{opacity:0}-0.01%{opacity:0}0.00%{opacity:1}19.99%{opacity:1}20.00%{opacity:0}100%{opacity:0}}.cd0{animation:cd0 8s linear infinite;opacity:0}@keyframes cd1{0%{opacity:0}19.99%{opacity:0}20.00%{opacity:1}39.99%{opacity:1}40.00%{opacity:0}100%{opacity:0}}.cd1{animation:cd1 8s linear infinite;opacity:0}@keyframes cd2{0%{opacity:0}39.99%{opacity:0}40.00%{opacity:1}59.99%{opacity:1}60.00%{opacity:0}100%{opacity:0}}.cd2{animation:cd2 8s linear infinite;opacity:0}@keyframes cd3{0%{opacity:0}59.99%{opacity:0}60.00%{opacity:1}77.99%{opacity:1}78.00%{opacity:0}100%{opacity:0}}.cd3{animation:cd3 8s linear infinite;opacity:0}@media (prefers-reduced-motion:reduce){*{animation:none!important}.f0,.f1,.f2,.hit,.fd0,.fd1,.fd2,.smp,.vote,.lit,.blk,.bt0{opacity:1!important}.head,.head2,.play,.bt{display:none}}</style></defs><rect width="1000" height="340" rx="14" fill="#0b0e12"/><rect width="1000" height="340" rx="14" fill="url(#glow)"/><g class="dr1"><circle cx="340" cy="57" r="0.9" fill="#e8ecf1" fill-opacity="0.09"/><circle cx="849" cy="38" r="0.9" fill="#e8ecf1" fill-opacity="0.09"/><circle cx="528" cy="20" r="0.7" fill="#e8ecf1" fill-opacity="0.18"/><circle cx="254" cy="187" r="0.5" fill="#e8ecf1" fill-opacity="0.28"/><circle cx="135" cy="80" r="0.9" fill="#e8ecf1" fill-opacity="0.22"/><circle cx="71" cy="198" r="0.5" fill="#e8ecf1" fill-opacity="0.31"/><circle cx="56" cy="286" r="0.7" fill="#e8ecf1" fill-opacity="0.18"/><circle cx="562" cy="193" r="0.9" fill="#e8ecf1" fill-opacity="0.28"/><circle cx="193" cy="196" r="0.9" fill="#e8ecf1" fill-opacity="0.13"/><circle cx="108" cy="239" r="0.9" fill="#e8ecf1" fill-opacity="0.09"/><circle cx="219" cy="228" r="0.7" fill="#e8ecf1" fill-opacity="0.27"/><circle cx="485" cy="307" r="0.7" fill="#e8ecf1" fill-opacity="0.15"/><circle cx="821" cy="234" r="0.5" fill="#e8ecf1" fill-opacity="0.10"/><circle cx="315" cy="168" r="0.7" fill="#e8ecf1" fill-opacity="0.26"/><circle cx="303" cy="326" r="0.5" fill="#e8ecf1" fill-opacity="0.20"/><circle cx="177" cy="119" r="0.7" fill="#e8ecf1" fill-opacity="0.18"/><circle cx="993" cy="33" r="0.9" fill="#e8ecf1" fill-opacity="0.22"/><circle cx="904" cy="110" r="0.9" fill="#e8ecf1" fill-opacity="0.16"/><circle cx="517" cy="266" r="0.5" fill="#e8ecf1" fill-opacity="0.28"/><circle cx="975" cy="162" r="0.9" fill="#e8ecf1" fill-opacity="0.10"/><circle cx="757" cy="108" r="0.9" fill="#e8ecf1" fill-opacity="0.32"/><circle cx="850" cy="100" r="0.7" fill="#e8ecf1" fill-opacity="0.29"/><circle cx="363" cy="313" r="0.7" fill="#e8ecf1" fill-opacity="0.12"/><circle cx="128" cy="27" r="0.7" fill="#e8ecf1" fill-opacity="0.11"/><circle cx="262" cy="135" r="0.7" fill="#e8ecf1" fill-opacity="0.10"/><circle cx="468" cy="186" r="0.5" fill="#e8ecf1" fill-opacity="0.28"/><circle cx="893" cy="98" r="0.7" fill="#e8ecf1" fill-opacity="0.32"/><circle cx="707" cy="131" r="0.5" fill="#e8ecf1" fill-opacity="0.12"/><circle cx="188" cy="83" r="0.5" fill="#e8ecf1" fill-opacity="0.08"/><circle cx="859" cy="67" r="0.7" fill="#e8ecf1" fill-opacity="0.08"/><circle cx="437" cy="128" r="0.9" fill="#e8ecf1" fill-opacity="0.16"/><circle cx="137" cy="286" r="0.9" fill="#e8ecf1" fill-opacity="0.24"/><circle cx="766" cy="156" r="0.9" fill="#e8ecf1" fill-opacity="0.27"/><circle cx="410" cy="137" r="0.5" fill="#e8ecf1" fill-opacity="0.20"/><circle cx="418" cy="70" r="0.5" fill="#e8ecf1" fill-opacity="0.19"/><circle cx="121" cy="203" r="0.5" fill="#e8ecf1" fill-opacity="0.08"/><circle cx="163" cy="41" r="0.7" fill="#e8ecf1" fill-opacity="0.23"/><circle cx="80" cy="75" r="0.7" fill="#e8ecf1" fill-opacity="0.12"/><circle cx="266" cy="121" r="0.7" fill="#e8ecf1" fill-opacity="0.19"/><circle cx="126" cy="166" r="0.7" fill="#e8ecf1" fill-opacity="0.20"/><circle cx="327" cy="55" r="0.9" fill="#e8ecf1" fill-opacity="0.16"/><circle cx="279" cy="277" r="0.5" fill="#e8ecf1" fill-opacity="0.20"/><circle cx="218" cy="316" r="0.7" fill="#e8ecf1" fill-opacity="0.12"/><circle cx="564" cy="17" r="0.9" fill="#e8ecf1" fill-opacity="0.15"/><circle cx="666" cy="37" r="0.7" fill="#e8ecf1" fill-opacity="0.20"/><circle cx="938" cy="123" r="0.5" fill="#e8ecf1" fill-opacity="0.21"/><circle cx="806" cy="115" r="0.5" fill="#e8ecf1" fill-opacity="0.23"/><circle cx="815" cy="254" r="0.5" fill="#e8ecf1" fill-opacity="0.27"/><circle cx="846" cy="248" r="0.5" fill="#e8ecf1" fill-opacity="0.13"/><circle cx="513" cy="245" r="0.5" fill="#e8ecf1" fill-opacity="0.27"/><circle cx="492" cy="71" r="0.9" fill="#e8ecf1" fill-opacity="0.31"/><circle cx="466" cy="312" r="0.7" fill="#e8ecf1" fill-opacity="0.31"/><circle cx="381" cy="79" r="0.5" fill="#e8ecf1" fill-opacity="0.19"/><circle cx="354" cy="164" r="0.9" fill="#e8ecf1" fill-opacity="0.28"/><circle cx="499" cy="220" r="0.9" fill="#e8ecf1" fill-opacity="0.10"/><circle cx="684" cy="303" r="0.9" fill="#e8ecf1" fill-opacity="0.26"/><circle cx="498" cy="66" r="0.9" fill="#e8ecf1" fill-opacity="0.16"/><circle cx="828" cy="323" r="0.7" fill="#e8ecf1" fill-opacity="0.19"/><circle cx="769" cy="36" r="0.5" fill="#e8ecf1" fill-opacity="0.12"/><circle cx="138" cy="57" r="0.7" fill="#e8ecf1" fill-opacity="0.27"/><circle cx="158" cy="276" r="0.7" fill="#e8ecf1" fill-opacity="0.24"/><circle cx="367" cy="186" r="0.5" fill="#e8ecf1" fill-opacity="0.09"/><circle cx="827" cy="243" r="0.5" fill="#e8ecf1" fill-opacity="0.21"/><circle cx="964" cy="149" r="0.5" fill="#e8ecf1" fill-opacity="0.28"/><circle cx="224" cy="90" r="0.7" fill="#e8ecf1" fill-opacity="0.20"/><circle cx="790" cy="114" r="0.9" fill="#e8ecf1" fill-opacity="0.18"/><circle cx="142" cy="303" r="0.7" fill="#e8ecf1" fill-opacity="0.30"/><circle cx="686" cy="272" r="0.9" fill="#e8ecf1" fill-opacity="0.18"/><circle cx="948" cy="171" r="0.9" fill="#e8ecf1" fill-opacity="0.12"/><circle cx="531" cy="291" r="0.5" fill="#e8ecf1" fill-opacity="0.23"/></g><g class="dr2"><circle cx="22" cy="46" r="1.2" fill="#e8ecf1" fill-opacity="0.29"/><circle cx="52" cy="314" r="1.4" fill="#e8ecf1" fill-opacity="0.32"/><circle cx="752" cy="57" r="1.4" fill="#e8ecf1" fill-opacity="0.26"/><circle cx="69" cy="84" r="1.4" fill="#e8ecf1" fill-opacity="0.38"/><circle cx="414" cy="329" r="1" fill="#e8ecf1" fill-opacity="0.29"/><circle cx="765" cy="294" r="1.2" fill="#e8ecf1" fill-opacity="0.31"/><circle cx="334" cy="127" r="1" fill="#e8ecf1" fill-opacity="0.31"/><circle cx="223" cy="197" r="1.4" fill="#e8ecf1" fill-opacity="0.27"/><circle cx="61" cy="68" r="1" fill="#e8ecf1" fill-opacity="0.31"/><circle cx="830" cy="326" r="1" fill="#e8ecf1" fill-opacity="0.28"/><circle cx="531" cy="150" r="1" fill="#e8ecf1" fill-opacity="0.31"/><circle cx="434" cy="128" r="1.2" fill="#e8ecf1" fill-opacity="0.44"/><circle cx="225" cy="23" r="1.2" fill="#e8ecf1" fill-opacity="0.34"/><circle cx="570" cy="164" r="1.4" fill="#e8ecf1" fill-opacity="0.50"/><circle cx="952" cy="322" r="1" fill="#e8ecf1" fill-opacity="0.49"/><circle cx="310" cy="66" r="1.4" fill="#e8ecf1" fill-opacity="0.53"/><circle cx="832" cy="104" r="1" fill="#e8ecf1" fill-opacity="0.31"/><circle cx="913" cy="202" r="1.4" fill="#e8ecf1" fill-opacity="0.54"/><circle cx="666" cy="101" r="1.2" fill="#e8ecf1" fill-opacity="0.44"/><circle cx="982" cy="73" r="1.2" fill="#e8ecf1" fill-opacity="0.31"/><circle cx="337" cy="139" r="1" fill="#e8ecf1" fill-opacity="0.42"/><circle cx="126" cy="42" r="1.4" fill="#e8ecf1" fill-opacity="0.29"/></g><path d="M675.3 133.3 L674.8 135.0 L674.5 136.7 L674.2 138.5 L674.2 140.4 L674.2 142.3 L674.5 144.2 L674.8 146.2 L675.3 148.2 L676.0 150.2 L676.8 152.3 L677.7 154.4 L678.7 156.5 L680.0 158.7 L681.3 160.9 L682.8 163.1 L684.4 165.3 L686.1 167.5 L688.0 169.8 L690.0 172.1 L692.1 174.3 L694.3 176.6 L696.7 178.9 L699.2 181.2 L701.8 183.4 L704.5 185.7 L707.3 188.0 L710.2 190.2 L713.2 192.4 L716.3 194.6 L719.5 196.8 L722.8 199.0 L726.1 201.1 L729.6 203.3 L733.1 205.3 L736.7 207.4 L740.4 209.4 L744.1 211.4 L747.9 213.3 L751.7 215.2 L755.6 217.1 L759.6 218.9 L763.5 220.6 L767.5 222.3 L771.6 223.9 L775.6 225.5 L779.7 227.1 L783.8 228.5 L787.9 229.9 L792.0 231.3 L796.1 232.6 L800.3 233.8 L804.4 234.9 L808.4 236.0 L812.5 237.0 L816.5 237.9 L820.5 238.8 L824.5 239.6 L828.4 240.3 L832.3 240.9 L836.2 241.5 L840.0 242.0 L843.7 242.4 L847.3 242.7 L850.9 243.0 L854.5 243.1 L857.9 243.2 L861.3 243.2 L864.6 243.2 L867.8 243.0 L870.9 242.8 L873.9 242.5 L876.8 242.1 L879.6 241.6 L882.3 241.1 L884.9 240.5 L887.3 239.8 L889.7 239.0 L891.9 238.1 L894.1 237.2 L896.1 236.2 L897.9 235.2 L899.7 234.0 L901.3 232.8 L902.7 231.6 L904.1 230.3 L905.3 228.9 L906.3 227.4 L907.3 225.9 L908.0 224.3" fill="none" stroke="#9ad1e0" stroke-opacity="0.42" stroke-width="1"/><path d="M849.0 20.8 L851.0 21.7 L852.9 22.7 L854.8 23.9 L856.5 25.3 L858.2 26.9 L859.8 28.7 L861.3 30.7 L862.7 32.8 L864.1 35.1 L865.3 37.6 L866.5 40.3 L867.6 43.1 L868.6 46.1 L869.5 49.3 L870.3 52.6 L871.0 56.1 L871.6 59.7 L872.1 63.4 L872.5 67.3 L872.8 71.4 L873.0 75.5 L873.1 79.8 L873.1 84.2 L873.1 88.7 L872.9 93.4 L872.6 98.1 L872.2 102.9 L871.7 107.9 L871.2 112.9 L870.5 118.0 L869.7 123.1 L868.9 128.3 L867.9 133.6 L866.9 139.0 L865.7 144.4 L864.5 149.8 L863.2 155.3 L861.8 160.7 L860.3 166.3 L858.7 171.8 L857.1 177.3 L855.4 182.9 L853.5 188.4 L851.7 193.9 L849.7 199.4 L847.7 204.9 L845.6 210.3 L843.4 215.7 L841.2 221.1 L838.9 226.4 L836.6 231.6 L834.2 236.8 L831.7 241.9 L829.3 246.9 L826.7 251.9 L824.1 256.7 L821.5 261.5 L818.9 266.1 L816.2 270.7 L813.5 275.1 L810.7 279.4 L807.9 283.6 L805.2 287.7 L802.4 291.6 L799.5 295.4 L796.7 299.1 L793.9 302.6 L791.1 305.9 L788.2 309.1 L785.4 312.2 L782.6 315.0 L779.8 317.7 L777.0 320.3 L774.2 322.6 L771.5 324.8 L768.7 326.8 L766.0 328.6 L763.4 330.3 L760.7 331.7 L758.1 333.0 L755.6 334.1 L753.1 335.0 L750.6 335.7 L748.2 336.2 L745.8 336.5 L743.5 336.6 L741.3 336.5 L739.1 336.3 L737.0 335.8" fill="none" stroke="#98a2b0" stroke-opacity="0.27" stroke-width="1" stroke-dasharray="2 5"/><path d="M600.6 141.7 L603.5 136.2 L606.6 130.7 L609.9 125.2 L613.4 119.9 L617.2 114.6 L621.2 109.4 L625.3 104.2 L629.7 99.2 L634.3 94.2 L639.1 89.4 L644.0 84.7 L649.2 80.0 L654.5 75.5 L660.0 71.1 L665.6 66.9 L671.4 62.8 L677.4 58.8 L683.5 55.0 L689.7 51.3 L696.0 47.8 L702.5 44.4 L709.1 41.2 L715.7 38.2 L722.5 35.3 L729.3 32.6 L736.3 30.1 L743.2 27.8 L750.3 25.6 L757.4 23.6 L764.5 21.9 L771.7 20.3 L778.9 18.9 L786.1 17.7 L793.4 16.7 L800.6 15.9 L807.8 15.3 L815.0 14.8 L822.2 14.6 L829.3 14.6 L836.4 14.8 L843.4 15.2 L850.4 15.8 L857.3 16.5 L864.1 17.5 L870.8 18.7 L877.4 20.0 L884.0 21.6 L890.4 23.3 L896.7 25.3 L902.9 27.4 L908.9 29.7 L914.8 32.2 L920.5 34.9 L926.1 37.7 L931.5 40.7 L936.8 43.9 L941.9 47.2 L946.7 50.7 L951.4 54.4 L956.0 58.2 L960.3 62.1 L964.4 66.2 L968.3 70.4 L971.9 74.8 L975.4 79.3 L978.6 83.9 L981.7 88.6 L984.4 93.4 L987.0 98.4 L989.3 103.4 L991.4 108.5 L993.2 113.7 M589.2 237.0 L587.9 231.6 L586.8 226.2 L586.0 220.7 L585.4 215.2 L585.1 209.6 L585.0 204.0 L585.2 198.4 L585.6 192.7 L586.3 187.0 L587.2 181.3 L588.4 175.6 L589.8 169.9 L591.5 164.2 L593.4 158.5 L595.6 152.9 L598.0 147.3 L600.6 141.7" fill="none" stroke="#78828f" stroke-opacity="0.22" stroke-width="1" stroke-dasharray="1 6"/><circle class="sat" r="2.7" fill="#9ad1e0" style="offset-path:path('M905.3 199.5 L902.7 195.1 L899.6 190.7 L896.0 186.2 L891.9 181.7 L887.3 177.1 L882.2 172.6 L876.7 168.0 L870.8 163.6 L864.5 159.2 L857.9 154.9 L850.9 150.7 L843.6 146.6 L836.1 142.7 L828.4 138.9 L820.5 135.4 L812.4 132.1 L804.3 128.9 L796.1 126.1 L787.9 123.4 L779.6 121.1 L771.5 119.0 L763.5 117.2 L755.6 115.7 L747.8 114.5 L740.3 113.6 L733.1 113.0 L726.1 112.8 L719.4 112.8 L713.1 113.2 L707.2 113.9 L701.7 114.9 L696.7 116.2 L692.1 117.9 L687.9 119.8 L684.3 122.0 L681.3 124.4 L678.7 127.1 L676.7 130.1 L675.3 133.3 L674.5 136.7 L674.2 140.4 L674.5 144.2 L675.3 148.2 L676.8 152.3 L678.7 156.5 L681.3 160.9 L684.4 165.3 L688.0 169.8 L692.1 174.3 L696.7 178.9 L701.8 183.4 L707.3 188.0 L713.2 192.4 L719.5 196.8 L726.1 201.1 L733.1 205.3 L740.4 209.4 L747.9 213.3 L755.6 217.1 L763.5 220.6 L771.6 223.9 L779.7 227.1 L787.9 229.9 L796.1 232.6 L804.4 234.9 L812.5 237.0 L820.5 238.8 L828.4 240.3 L836.2 241.5 L843.7 242.4 L850.9 243.0 L857.9 243.2 L864.6 243.2 L870.9 242.8 L876.8 242.1 L882.3 241.1 L887.3 239.8 L891.9 238.1 L896.1 236.2 L899.7 234.0 L902.7 231.6 L905.3 228.9 L907.3 225.9 L908.7 222.7 L909.5 219.3 L909.8 215.6 L909.5 211.8 L908.7 207.8 L907.2 203.7 L905.3 199.5 Z');animation-duration:26s;animation-delay:-3s"/><circle class="sat" r="2.7" fill="#9ad1e0" style="offset-path:path('M713.5 238.0 L715.1 227.7 L717.1 217.0 L719.5 206.2 L722.2 195.3 L725.3 184.2 L728.6 173.1 L732.3 162.1 L736.3 151.1 L740.6 140.3 L745.1 129.6 L749.8 119.2 L754.7 109.1 L759.9 99.3 L765.1 89.9 L770.5 80.9 L776.1 72.4 L781.6 64.4 L787.3 56.9 L792.9 50.1 L798.6 43.8 L804.2 38.3 L809.8 33.4 L815.3 29.2 L820.6 25.7 L825.9 23.0 L830.9 21.0 L835.8 19.8 L840.5 19.4 L844.9 19.7 L849.0 20.8 L852.9 22.7 L856.5 25.3 L859.8 28.7 L862.7 32.8 L865.3 37.6 L867.6 43.1 L869.5 49.3 L871.0 56.1 L872.1 63.4 L872.8 71.4 L873.1 79.8 L873.1 88.7 L872.6 98.1 L871.7 107.9 L870.5 118.0 L868.9 128.3 L866.9 139.0 L864.5 149.8 L861.8 160.7 L858.7 171.8 L855.4 182.9 L851.7 193.9 L847.7 204.9 L843.4 215.7 L838.9 226.4 L834.2 236.8 L829.3 246.9 L824.1 256.7 L818.9 266.1 L813.5 275.1 L807.9 283.6 L802.4 291.6 L796.7 299.1 L791.1 305.9 L785.4 312.2 L779.8 317.7 L774.2 322.6 L768.7 326.8 L763.4 330.3 L758.1 333.0 L753.1 335.0 L748.2 336.2 L743.5 336.6 L739.1 336.3 L735.0 335.2 L731.1 333.3 L727.5 330.7 L724.2 327.3 L721.3 323.2 L718.7 318.4 L716.4 312.9 L714.5 306.7 L713.0 299.9 L711.9 292.6 L711.2 284.6 L710.9 276.2 L710.9 267.3 L711.4 257.9 L712.3 248.1 L713.5 238.0 Z');animation-duration:38s;animation-delay:-14s"/><circle class="sat" r="2.7" fill="#9ad1e0" style="offset-path:path('M600.6 141.7 L606.6 130.7 L613.4 119.9 L621.2 109.4 L629.7 99.2 L639.1 89.4 L649.2 80.0 L660.0 71.1 L671.4 62.8 L683.5 55.0 L696.0 47.8 L709.1 41.2 L722.5 35.3 L736.3 30.1 L750.3 25.6 L764.5 21.9 L778.9 18.9 L793.4 16.7 L807.8 15.3 L822.2 14.6 L836.4 14.8 L850.4 15.8 L864.1 17.5 L877.4 20.0 L890.4 23.3 L902.9 27.4 L914.8 32.2 L926.1 37.7 L936.8 43.9 L946.7 50.7 L956.0 58.2 L964.4 66.2 L971.9 74.8 L978.6 83.9 L984.4 93.4 L989.3 103.4 L993.2 113.7 L996.1 124.4 L998.0 135.3 L998.9 146.4 L998.8 157.6 L997.7 169.0 L995.6 180.4 L992.5 191.8 L988.4 203.1 L983.4 214.3 L977.4 225.3 L970.6 236.1 L962.8 246.6 L954.3 256.8 L944.9 266.6 L934.8 276.0 L924.0 284.9 L912.6 293.2 L900.5 301.0 L888.0 308.2 L874.9 314.8 L861.5 320.7 L847.7 325.9 L833.7 330.4 L819.5 334.1 L805.1 337.1 L790.6 339.3 L776.2 340.7 L761.8 341.4 L747.6 341.2 L733.6 340.2 L719.9 338.5 L706.6 336.0 L693.6 332.7 L681.1 328.6 L669.2 323.8 L657.9 318.3 L647.2 312.1 L637.3 305.3 L628.0 297.8 L619.6 289.8 L612.1 281.2 L605.4 272.1 L599.6 262.6 L594.7 252.6 L590.8 242.3 L587.9 231.6 L586.0 220.7 L585.1 209.6 L585.2 198.4 L586.3 187.0 L588.4 175.6 L591.5 164.2 L595.6 152.9 L600.6 141.7 Z');animation-duration:54s;animation-delay:-30s"/><circle cx="792" cy="178" r="88" fill="#0c1117" stroke="#2a3441" stroke-width="1"/><circle cx="792" cy="178" r="88" fill="url(#shade1)"/><path d="M766.1 262.1 L768.7 262.8 L771.3 263.4 L774.1 264.0 L777.0 264.4 L779.9 264.8 L782.9 265.1 L785.9 265.3 L788.9 265.5 L792.0 265.5 L795.1 265.5 L798.1 265.3 L801.1 265.1 L804.1 264.8 L807.0 264.4 L809.9 264.0 L812.7 263.4 L815.3 262.8 L817.9 262.1 M719.5 227.8 L721.3 229.8 L723.5 231.8 L726.0 233.7 L728.8 235.5 L731.9 237.3 L735.4 238.9 L739.1 240.5 L743.0 241.9 L747.2 243.3 L751.6 244.5 L756.2 245.6 L761.0 246.5 L765.9 247.3 L771.0 248.0 L776.2 248.5 L781.4 248.9 L786.7 249.1 L792.0 249.2 L797.3 249.1 L802.6 248.9 L807.8 248.5 L813.0 248.0 L818.1 247.3 L823.0 246.5 L827.8 245.6 L832.4 244.5 L836.8 243.3 L841.0 241.9 L844.9 240.5 L848.6 238.9 L852.1 237.3 L855.2 235.5 L858.0 233.7 L860.5 231.8 L862.7 229.8 L864.5 227.8 M704.1 179.2 L704.5 181.7 L705.3 184.2 L706.6 186.7 L708.3 189.1 L710.4 191.4 L712.9 193.7 L715.8 195.9 L719.0 198.0 L722.7 200.0 L726.6 202.0 L730.9 203.7 L735.4 205.4 L740.3 207.0 L745.4 208.4 L750.7 209.6 L756.2 210.7 L761.9 211.6 L767.7 212.4 L773.7 213.0 L779.8 213.4 L785.9 213.7 L792.0 213.8 L798.1 213.7 L804.2 213.4 L810.3 213.0 L816.3 212.4 L822.1 211.6 L827.8 210.7 L833.3 209.6 L838.6 208.4 L843.7 207.0 L848.6 205.4 L853.1 203.7 L857.4 202.0 L861.3 200.0 L865.0 198.0 L868.2 195.9 L871.1 193.7 L873.6 191.4 L875.7 189.1 L877.4 186.7 L878.7 184.2 L879.5 181.7 L879.9 179.2 M718.1 130.3 L716.9 132.4 L716.2 134.6 L715.8 136.7 L715.8 138.9 L716.2 141.0 L716.9 143.2 L718.1 145.3 L719.5 147.4 L721.3 149.4 L723.5 151.4 L726.0 153.3 L728.8 155.1 L731.9 156.9 L735.4 158.5 L739.1 160.1 L743.0 161.5 L747.2 162.9 L751.6 164.1 L756.2 165.2 L761.0 166.1 L765.9 166.9 L771.0 167.6 L776.2 168.1 L781.4 168.5 L786.7 168.7 L792.0 168.8 L797.3 168.7 L802.6 168.5 L807.8 168.1 L813.0 167.6 L818.1 166.9 L823.0 166.1 L827.8 165.2 L832.4 164.1 L836.8 162.9 L841.0 161.5 L844.9 160.1 L848.6 158.5 L852.1 156.9 L855.2 155.1 L858.0 153.3 L860.5 151.4 L862.7 149.4 L864.5 147.4 L865.9 145.3 L867.1 143.2 L867.8 141.0 L868.2 138.9 L868.2 136.7 L867.8 134.6 L867.1 132.4 L865.9 130.3 M763.7 94.7 L761.4 95.5 L759.3 96.4 L757.3 97.4 L755.5 98.4 L753.9 99.4 L752.5 100.5 L751.2 101.7 L750.2 102.8 L749.3 104.0 L748.7 105.3 L748.2 106.5 L748.0 107.8 L748.0 109.0 L748.2 110.2 L748.7 111.5 L749.3 112.7 L750.2 113.9 L751.2 115.1 L752.5 116.2 L753.9 117.3 L755.5 118.4 L757.3 119.4 L759.3 120.4 L761.4 121.3 L763.7 122.1 L766.1 122.9 L768.7 123.6 L771.3 124.2 L774.1 124.7 L777.0 125.2 L779.9 125.6 L782.9 125.9 L785.9 126.1 L788.9 126.2 L792.0 126.3 L795.1 126.2 L798.1 126.1 L801.1 125.9 L804.1 125.6 L807.0 125.2 L809.9 124.7 L812.7 124.2 L815.3 123.6 L817.9 122.9 L820.3 122.1 L822.6 121.3 L824.7 120.4 L826.7 119.4 L828.5 118.4 L830.1 117.3 L831.5 116.2 L832.8 115.1 L833.8 113.9 L834.7 112.7 L835.3 111.5 L835.8 110.2 L836.0 109.0 L836.0 107.8 L835.8 106.5 L835.3 105.3 L834.7 104.0 L833.8 102.8 L832.8 101.7 L831.5 100.5 L830.1 99.4 L828.5 98.4 L826.7 97.4 L824.7 96.4 L822.6 95.5 L820.3 94.7 M792.0 90.2 L792.0 90.9 L792.0 91.9 L792.0 93.4 L792.0 95.3 L792.0 97.6 M774.1 92.0 L777.0 91.9 L779.9 92.2 L782.9 92.9 L785.9 94.1 L788.9 95.6 L792.0 97.6 M743.0 104.9 L747.2 102.4 L751.6 100.3 L756.2 98.6 L761.0 97.3 L765.9 96.3 L771.0 95.8 L776.2 95.6 L781.4 95.9 L786.7 96.6 L792.0 97.6 M704.1 175.2 L704.5 169.6 L705.3 164.0 L706.6 158.6 L708.3 153.2 L710.4 147.9 L712.9 142.8 L715.8 137.8 L719.0 133.0 L722.7 128.5 L726.6 124.2 L730.9 120.2 L735.4 116.4 L740.3 113.0 L745.4 109.8 L750.7 107.0 L756.2 104.6 L761.9 102.5 L767.7 100.7 L773.7 99.4 L779.8 98.4 L785.9 97.8 L792.0 97.6 M739.1 248.3 L735.4 245.1 L731.9 241.6 L728.8 237.8 L726.0 233.7 L723.5 229.3 L721.3 224.7 L719.5 219.9 L718.1 214.8 L716.9 209.6 L716.2 204.2 L715.8 198.7 L715.8 193.1 L716.2 187.4 L716.9 181.7 L718.1 175.9 L719.5 170.2 L721.3 164.5 L723.5 158.8 L726.0 153.3 L728.8 147.9 L731.9 142.6 L735.4 137.5 L739.1 132.6 L743.0 127.9 L747.2 123.5 L751.6 119.3 L756.2 115.4 L761.0 111.8 L765.9 108.6 L771.0 105.7 L776.2 103.1 L781.4 100.9 L786.7 99.1 L792.0 97.6 M771.3 263.5 L768.7 262.6 L766.1 261.3 L763.7 259.5 L761.4 257.4 L759.3 254.8 L757.3 251.9 L755.5 248.7 L753.9 245.0 L752.5 241.1 L751.2 236.9 L750.2 232.3 L749.3 227.5 L748.7 222.5 L748.2 217.2 L748.0 211.8 L748.0 206.2 L748.2 200.4 L748.7 194.6 L749.3 188.6 L750.2 182.6 L751.2 176.6 L752.5 170.6 L753.9 164.6 L755.5 158.7 L757.3 152.9 L759.3 147.2 L761.4 141.7 L763.7 136.3 L766.1 131.2 L768.7 126.2 L771.3 121.6 L774.1 117.2 L777.0 113.1 L779.9 109.3 L782.9 105.8 L785.9 102.7 L788.9 100.0 L792.0 97.6 M792.0 265.8 L792.0 265.1 L792.0 264.1 L792.0 262.6 L792.0 260.7 L792.0 258.4 L792.0 255.7 L792.0 252.6 L792.0 249.2 L792.0 245.4 L792.0 241.3 L792.0 236.9 L792.0 232.2 L792.0 227.2 L792.0 222.0 L792.0 216.6 L792.0 211.0 L792.0 205.2 L792.0 199.3 L792.0 193.3 L792.0 187.2 L792.0 181.1 L792.0 174.9 L792.0 168.8 L792.0 162.7 L792.0 156.7 L792.0 150.8 L792.0 145.0 L792.0 139.4 L792.0 134.0 L792.0 128.8 L792.0 123.8 L792.0 119.1 L792.0 114.7 L792.0 110.6 L792.0 106.8 L792.0 103.4 L792.0 100.3 L792.0 97.6 M812.7 263.5 L815.3 262.6 L817.9 261.3 L820.3 259.5 L822.6 257.4 L824.7 254.8 L826.7 251.9 L828.5 248.7 L830.1 245.0 L831.5 241.1 L832.8 236.9 L833.8 232.3 L834.7 227.5 L835.3 222.5 L835.8 217.2 L836.0 211.8 L836.0 206.2 L835.8 200.4 L835.3 194.6 L834.7 188.6 L833.8 182.6 L832.8 176.6 L831.5 170.6 L830.1 164.6 L828.5 158.7 L826.7 152.9 L824.7 147.2 L822.6 141.7 L820.3 136.3 L817.9 131.2 L815.3 126.2 L812.7 121.6 L809.9 117.2 L807.0 113.1 L804.1 109.3 L801.1 105.8 L798.1 102.7 L795.1 100.0 L792.0 97.6 M844.9 248.3 L848.6 245.1 L852.1 241.6 L855.2 237.8 L858.0 233.7 L860.5 229.3 L862.7 224.7 L864.5 219.9 L865.9 214.8 L867.1 209.6 L867.8 204.2 L868.2 198.7 L868.2 193.1 L867.8 187.4 L867.1 181.7 L865.9 175.9 L864.5 170.2 L862.7 164.5 L860.5 158.8 L858.0 153.3 L855.2 147.9 L852.1 142.6 L848.6 137.5 L844.9 132.6 L841.0 127.9 L836.8 123.5 L832.4 119.3 L827.8 115.4 L823.0 111.8 L818.1 108.6 L813.0 105.7 L807.8 103.1 L802.6 100.9 L797.3 99.1 L792.0 97.6 M879.9 175.2 L879.5 169.6 L878.7 164.0 L877.4 158.6 L875.7 153.2 L873.6 147.9 L871.1 142.8 L868.2 137.8 L865.0 133.0 L861.3 128.5 L857.4 124.2 L853.1 120.2 L848.6 116.4 L843.7 113.0 L838.6 109.8 L833.3 107.0 L827.8 104.6 L822.1 102.5 L816.3 100.7 L810.3 99.4 L804.2 98.4 L798.1 97.8 L792.0 97.6 M841.0 104.9 L836.8 102.4 L832.4 100.3 L827.8 98.6 L823.0 97.3 L818.1 96.3 L813.0 95.8 L807.8 95.6 L802.6 95.9 L797.3 96.6 L792.0 97.6 M809.9 92.0 L807.0 91.9 L804.1 92.2 L801.1 92.9 L798.1 94.1 L795.1 95.6 L792.0 97.6" fill="none" stroke="#252e3a" stroke-width=".8"/><path d="M905.3 199.5 L904.0 197.3 L902.7 195.1 L901.2 192.9 L899.6 190.7 L897.9 188.5 L896.0 186.2 L894.0 183.9 L891.9 181.7 L889.7 179.4 L887.3 177.1 L884.8 174.8 L882.2 172.6 L879.5 170.3 L876.7 168.0 L873.8 165.8 L870.8 163.6 L867.7 161.4 L864.5 159.2 L861.2 157.0 L857.9 154.9 L854.4 152.7 L850.9 150.7 L847.3 148.6 L843.6 146.6 L839.9 144.6 L836.1 142.7 L832.3 140.8 L828.4 138.9 L824.4 137.1 L820.5 135.4 L816.5 133.7 L812.4 132.1 L808.4 130.5 L804.3 128.9 L800.2 127.5 L796.1 126.1 L792.0 124.7 L787.9 123.4 L783.7 122.2 L779.6 121.1 L775.6 120.0 L771.5 119.0 L767.5 118.1 L763.5 117.2 L759.5 116.4 L755.6 115.7 L751.7 115.1 L747.8 114.5 L744.0 114.0 L740.3 113.6 L736.7 113.3 L733.1 113.0 L729.5 112.9 L726.1 112.8 L722.7 112.8 L719.4 112.8 L716.2 113.0 L713.1 113.2 L710.1 113.5 L707.2 113.9 L704.4 114.4 L701.7 114.9 L699.1 115.5 L696.7 116.2 L694.3 117.0 L692.1 117.9 L689.9 118.8 L687.9 119.8 L686.1 120.8 L684.3 122.0 L682.7 123.2 L681.3 124.4 L679.9 125.7 L678.7 127.1 L677.7 128.6 L676.7 130.1 L676.0 131.7 M908.7 222.7 L909.2 221.0 L909.5 219.3 L909.8 217.5 L909.8 215.6 L909.8 213.7 L909.5 211.8 L909.2 209.8 L908.7 207.8 L908.0 205.8 L907.2 203.7 L906.3 201.6 L905.3 199.5" fill="none" stroke="#9ad1e0" stroke-opacity="0.6" stroke-width="1"/><path d="M713.5 238.0 L714.3 232.9 L715.1 227.7 L716.1 222.4 L717.1 217.0 L718.3 211.6 L719.5 206.2 L720.8 200.7 L722.2 195.3 L723.7 189.7 L725.3 184.2 L726.9 178.7 L728.6 173.1 L730.5 167.6 L732.3 162.1 L734.3 156.6 L736.3 151.1 L738.4 145.7 L740.6 140.3 L742.8 134.9 L745.1 129.6 L747.4 124.4 L749.8 119.2 L752.3 114.1 L754.7 109.1 L757.3 104.1 L759.9 99.3 L762.5 94.5 L765.1 89.9 L767.8 85.3 L770.5 80.9 L773.3 76.6 L776.1 72.4 L778.8 68.3 L781.6 64.4 L784.5 60.6 L787.3 56.9 L790.1 53.4 L792.9 50.1 L795.8 46.9 L798.6 43.8 L801.4 41.0 L804.2 38.3 L807.0 35.7 L809.8 33.4 L812.5 31.2 L815.3 29.2 L818.0 27.4 L820.6 25.7 L823.3 24.3 L825.9 23.0 L828.4 21.9 L830.9 21.0 L833.4 20.3 L835.8 19.8 L838.2 19.5 L840.5 19.4 L842.7 19.5 L844.9 19.7 L847.0 20.2 M735.0 335.2 L733.0 334.3 L731.1 333.3 L729.2 332.1 L727.5 330.7 L725.8 329.1 L724.2 327.3 L722.7 325.3 L721.3 323.2 L719.9 320.9 L718.7 318.4 L717.5 315.7 L716.4 312.9 L715.4 309.9 L714.5 306.7 L713.7 303.4 L713.0 299.9 L712.4 296.3 L711.9 292.6 L711.5 288.7 L711.2 284.6 L711.0 280.5 L710.9 276.2 L710.9 271.8 L710.9 267.3 L711.1 262.6 L711.4 257.9 L711.8 253.1 L712.3 248.1 L712.8 243.1 L713.5 238.0" fill="none" stroke="#98a2b0" stroke-opacity="0.38" stroke-width="1" stroke-dasharray="2 5"/><path d="M994.8 119.0 L996.1 124.4 L997.2 129.8 L998.0 135.3 L998.6 140.8 L998.9 146.4 L999.0 152.0 L998.8 157.6 L998.4 163.3 L997.7 169.0 L996.8 174.7 L995.6 180.4 L994.2 186.1 L992.5 191.8 L990.6 197.5 L988.4 203.1 L986.0 208.7 L983.4 214.3 L980.5 219.8 L977.4 225.3 L974.1 230.8 L970.6 236.1 L966.8 241.4 L962.8 246.6 L958.7 251.8 L954.3 256.8 L949.7 261.8 L944.9 266.6 L940.0 271.3 L934.8 276.0 L929.5 280.5 L924.0 284.9 L918.4 289.1 L912.6 293.2 L906.6 297.2 L900.5 301.0 L894.3 304.7 L888.0 308.2 L881.5 311.6 L874.9 314.8 L868.3 317.8 L861.5 320.7 L854.7 323.4 L847.7 325.9 L840.8 328.2 L833.7 330.4 L826.6 332.4 L819.5 334.1 L812.3 335.7 L805.1 337.1 L797.9 338.3 L790.6 339.3 L783.4 340.1 L776.2 340.7 L769.0 341.2 L761.8 341.4 L754.7 341.4 L747.6 341.2 L740.6 340.8 L733.6 340.2 L726.7 339.5 L719.9 338.5 L713.2 337.3 L706.6 336.0 L700.0 334.4 L693.6 332.7 L687.3 330.7 L681.1 328.6 L675.1 326.3 L669.2 323.8 L663.5 321.1 L657.9 318.3 L652.5 315.3 L647.2 312.1 L642.1 308.8 L637.3 305.3 L632.6 301.6 L628.0 297.8 L623.7 293.9 L619.6 289.8 L615.7 285.6 L612.1 281.2 L608.6 276.7 L605.4 272.1 L602.3 267.4 L599.6 262.6 L597.0 257.6 L594.7 252.6 L592.6 247.5 L590.8 242.3" fill="none" stroke="#78828f" stroke-opacity="0.32" stroke-width="1" stroke-dasharray="1 6"/><circle cx="887.7" cy="165.5" r="1.1" fill="#9ad1e0" fill-opacity="0.38"/><circle cx="748.4" cy="173.9" r="0.7" fill="#9ad1e0" fill-opacity="0.52"/><circle cx="704.8" cy="151.4" r="0.7" fill="#9ad1e0" fill-opacity="0.23"/><circle cx="772.7" cy="294.6" r="1.1" fill="#9ad1e0" fill-opacity="0.32"/><circle cx="700.0" cy="276.8" r="1.1" fill="#9ad1e0" fill-opacity="0.26"/><circle cx="881.3" cy="279.1" r="1.1" fill="#9ad1e0" fill-opacity="0.44"/><circle cx="789.6" cy="58.5" r="1.1" fill="#9ad1e0" fill-opacity="0.64"/><circle cx="715.8" cy="203.6" r="1.1" fill="#9ad1e0" fill-opacity="0.56"/><circle cx="758.2" cy="234.6" r="1.1" fill="#9ad1e0" fill-opacity="0.58"/><circle cx="855.4" cy="216.3" r="1.1" fill="#9ad1e0" fill-opacity="0.48"/><circle cx="800.6" cy="221.8" r="0.7" fill="#9ad1e0" fill-opacity="0.45"/><circle cx="838.2" cy="290.1" r="0.9" fill="#9ad1e0" fill-opacity="0.42"/><circle cx="790.8" cy="146.0" r="1.1" fill="#9ad1e0" fill-opacity="0.44"/><circle cx="695.9" cy="179.4" r="0.9" fill="#9ad1e0" fill-opacity="0.47"/><circle cx="751.2" cy="162.1" r="0.7" fill="#9ad1e0" fill-opacity="0.45"/><circle cx="762.9" cy="278.9" r="1.1" fill="#9ad1e0" fill-opacity="0.30"/><circle cx="692.3" cy="149.8" r="0.9" fill="#9ad1e0" fill-opacity="0.23"/><circle cx="959.5" cy="192.8" r="0.9" fill="#9ad1e0" fill-opacity="0.33"/><circle cx="785.7" cy="118.5" r="0.9" fill="#9ad1e0" fill-opacity="0.45"/><circle cx="855.0" cy="246.1" r="0.9" fill="#9ad1e0" fill-opacity="0.42"/><circle cx="798.5" cy="91.2" r="0.9" fill="#9ad1e0" fill-opacity="0.61"/><circle cx="685.9" cy="214.6" r="0.7" fill="#9ad1e0" fill-opacity="0.23"/><circle cx="885.1" cy="144.0" r="0.7" fill="#9ad1e0" fill-opacity="0.64"/><circle cx="659.1" cy="147.5" r="1.1" fill="#9ad1e0" fill-opacity="0.47"/><circle cx="762.2" cy="240.9" r="0.7" fill="#9ad1e0" fill-opacity="0.35"/><circle cx="697.9" cy="99.1" r="1.1" fill="#9ad1e0" fill-opacity="0.33"/><circle cx="864.5" cy="206.2" r="0.9" fill="#9ad1e0" fill-opacity="0.29"/><circle cx="871.6" cy="37.4" r="0.7" fill="#9ad1e0" fill-opacity="0.47"/><circle cx="719.5" cy="290.7" r="0.9" fill="#9ad1e0" fill-opacity="0.44"/><circle cx="745.0" cy="91.0" r="0.9" fill="#9ad1e0" fill-opacity="0.31"/><circle cx="731.1" cy="298.9" r="1.1" fill="#9ad1e0" fill-opacity="0.45"/><circle cx="765.8" cy="56.8" r="0.7" fill="#9ad1e0" fill-opacity="0.29"/><circle cx="700.7" cy="262.7" r="0.9" fill="#9ad1e0" fill-opacity="0.37"/><circle cx="700.4" cy="175.9" r="0.9" fill="#9ad1e0" fill-opacity="0.28"/><circle cx="947.1" cy="211.1" r="0.9" fill="#9ad1e0" fill-opacity="0.25"/><circle cx="777.3" cy="292.8" r="1.1" fill="#9ad1e0" fill-opacity="0.45"/><circle cx="746.3" cy="133.8" r="1.1" fill="#9ad1e0" fill-opacity="0.51"/><circle cx="891.1" cy="166.5" r="1.1" fill="#9ad1e0" fill-opacity="0.40"/><circle cx="883.5" cy="219.9" r="0.9" fill="#9ad1e0" fill-opacity="0.61"/><circle cx="817.4" cy="77.3" r="0.9" fill="#9ad1e0" fill-opacity="0.36"/><circle cx="896.6" cy="185.4" r="0.9" fill="#9ad1e0" fill-opacity="0.53"/><circle cx="882.0" cy="243.4" r="1.1" fill="#9ad1e0" fill-opacity="0.64"/><circle cx="879.6" cy="128.8" r="0.9" fill="#9ad1e0" fill-opacity="0.26"/><circle cx="786.4" cy="50.3" r="0.9" fill="#9ad1e0" fill-opacity="0.30"/><circle cx="844.7" cy="34.3" r="1.1" fill="#9ad1e0" fill-opacity="0.48"/><circle cx="778.3" cy="248.2" r="0.7" fill="#9ad1e0" fill-opacity="0.34"/><circle cx="878.1" cy="126.1" r="0.7" fill="#9ad1e0" fill-opacity="0.64"/><circle cx="689.3" cy="250.8" r="1.1" fill="#9ad1e0" fill-opacity="0.35"/><circle cx="646.7" cy="246.3" r="1.1" fill="#9ad1e0" fill-opacity="0.57"/><circle cx="656.9" cy="94.1" r="1.1" fill="#9ad1e0" fill-opacity="0.59"/><circle cx="873.8" cy="108.9" r="0.9" fill="#9ad1e0" fill-opacity="0.29"/><circle cx="747.4" cy="283.3" r="1.1" fill="#9ad1e0" fill-opacity="0.28"/><circle cx="691.4" cy="167.6" r="1.1" fill="#9ad1e0" fill-opacity="0.60"/><circle cx="957.7" cy="159.1" r="0.7" fill="#9ad1e0" fill-opacity="0.53"/><circle cx="764.3" cy="73.9" r="1.1" fill="#9ad1e0" fill-opacity="0.31"/><circle cx="904.2" cy="138.4" r="0.7" fill="#9ad1e0" fill-opacity="0.35"/><circle cx="810.9" cy="309.7" r="1.1" fill="#9ad1e0" fill-opacity="0.26"/><circle cx="742.0" cy="97.3" r="0.9" fill="#9ad1e0" fill-opacity="0.40"/><circle cx="959.4" cy="191.1" r="0.9" fill="#9ad1e0" fill-opacity="0.44"/><circle cx="733.8" cy="212.1" r="0.7" fill="#9ad1e0" fill-opacity="0.34"/><circle cx="651.4" cy="159.6" r="1.1" fill="#9ad1e0" fill-opacity="0.52"/><circle cx="826.9" cy="274.7" r="0.9" fill="#9ad1e0" fill-opacity="0.39"/><circle cx="924.6" cy="178.7" r="0.7" fill="#9ad1e0" fill-opacity="0.41"/><circle cx="690.5" cy="134.6" r="1.1" fill="#9ad1e0" fill-opacity="0.32"/><circle cx="729.9" cy="288.1" r="0.7" fill="#9ad1e0" fill-opacity="0.45"/><circle cx="910.7" cy="159.4" r="0.9" fill="#9ad1e0" fill-opacity="0.57"/><circle cx="748.3" cy="239.7" r="1.1" fill="#9ad1e0" fill-opacity="0.55"/><circle cx="857.8" cy="296.6" r="0.9" fill="#9ad1e0" fill-opacity="0.44"/><circle cx="767.8" cy="276.1" r="0.9" fill="#9ad1e0" fill-opacity="0.35"/><circle cx="833.4" cy="134.5" r="0.7" fill="#9ad1e0" fill-opacity="0.46"/><circle cx="826.1" cy="344.3" r="0.7" fill="#9ad1e0" fill-opacity="0.64"/><circle cx="855.4" cy="103.0" r="1.1" fill="#9ad1e0" fill-opacity="0.22"/><circle cx="660.3" cy="224.4" r="1.1" fill="#9ad1e0" fill-opacity="0.35"/><circle cx="944.7" cy="152.2" r="0.9" fill="#9ad1e0" fill-opacity="0.56"/><circle cx="801.4" cy="75.1" r="0.7" fill="#9ad1e0" fill-opacity="0.42"/><circle cx="715.2" cy="120.7" r="0.7" fill="#9ad1e0" fill-opacity="0.50"/><circle cx="843.8" cy="155.4" r="1.1" fill="#9ad1e0" fill-opacity="0.52"/><circle cx="685.0" cy="103.8" r="0.7" fill="#9ad1e0" fill-opacity="0.25"/><circle cx="934.3" cy="212.4" r="0.7" fill="#9ad1e0" fill-opacity="0.29"/><circle cx="772.0" cy="52.6" r="1.1" fill="#9ad1e0" fill-opacity="0.39"/><circle cx="724.3" cy="79.4" r="1.1" fill="#9ad1e0" fill-opacity="0.52"/><circle cx="770.9" cy="235.9" r="0.9" fill="#9ad1e0" fill-opacity="0.62"/><circle cx="796.8" cy="81.1" r="1.1" fill="#9ad1e0" fill-opacity="0.41"/><circle cx="907.5" cy="180.6" r="0.7" fill="#9ad1e0" fill-opacity="0.32"/><circle cx="889.6" cy="190.9" r="1.1" fill="#9ad1e0" fill-opacity="0.63"/><circle cx="864.3" cy="121.5" r="0.7" fill="#9ad1e0" fill-opacity="0.64"/><circle cx="800.1" cy="75.7" r="1.1" fill="#9ad1e0" fill-opacity="0.33"/><circle cx="912.3" cy="187.9" r="0.7" fill="#9ad1e0" fill-opacity="0.59"/><circle cx="785.5" cy="97.0" r="0.7" fill="#9ad1e0" fill-opacity="0.60"/><circle cx="664.8" cy="155.9" r="1.1" fill="#9ad1e0" fill-opacity="0.45"/><circle cx="740.9" cy="288.7" r="0.7" fill="#9ad1e0" fill-opacity="0.24"/><circle cx="720.0" cy="180.5" r="0.7" fill="#9ad1e0" fill-opacity="0.30"/><circle cx="683.4" cy="213.7" r="1.1" fill="#9ad1e0" fill-opacity="0.41"/><circle cx="834.2" cy="74.3" r="0.7" fill="#9ad1e0" fill-opacity="0.47"/><circle cx="872.8" cy="252.5" r="1.1" fill="#9ad1e0" fill-opacity="0.64"/><circle cx="816.8" cy="329.6" r="0.9" fill="#9ad1e0" fill-opacity="0.62"/><circle cx="736.8" cy="257.0" r="0.9" fill="#9ad1e0" fill-opacity="0.30"/><circle cx="890.9" cy="181.6" r="0.7" fill="#9ad1e0" fill-opacity="0.64"/><circle cx="668.9" cy="92.4" r="0.9" fill="#9ad1e0" fill-opacity="0.26"/><circle cx="769.0" cy="96.2" r="0.9" fill="#9ad1e0" fill-opacity="0.58"/><circle cx="871.4" cy="259.5" r="1.1" fill="#9ad1e0" fill-opacity="0.43"/><circle cx="737.8" cy="248.2" r="1.1" fill="#9ad1e0" fill-opacity="0.52"/><circle cx="718.1" cy="83.9" r="0.9" fill="#9ad1e0" fill-opacity="0.26"/><circle cx="776.4" cy="288.8" r="1.1" fill="#9ad1e0" fill-opacity="0.35"/><circle cx="784.0" cy="232.1" r="0.7" fill="#9ad1e0" fill-opacity="0.45"/><circle cx="887.0" cy="166.2" r="0.9" fill="#9ad1e0" fill-opacity="0.43"/><circle cx="924.1" cy="222.9" r="0.7" fill="#9ad1e0" fill-opacity="0.28"/><circle cx="818.8" cy="66.6" r="1.1" fill="#9ad1e0" fill-opacity="0.54"/><circle cx="683.6" cy="202.1" r="1.1" fill="#9ad1e0" fill-opacity="0.44"/><circle cx="704.0" cy="217.8" r="0.7" fill="#9ad1e0" fill-opacity="0.55"/><circle cx="658.2" cy="184.0" r="0.9" fill="#9ad1e0" fill-opacity="0.53"/><circle cx="880.5" cy="223.3" r="0.7" fill="#9ad1e0" fill-opacity="0.47"/><circle cx="765.8" cy="324.5" r="1.1" fill="#9ad1e0" fill-opacity="0.43"/><circle cx="827.4" cy="262.1" r="0.7" fill="#9ad1e0" fill-opacity="0.56"/><circle cx="650.1" cy="188.6" r="0.9" fill="#9ad1e0" fill-opacity="0.44"/><circle cx="900.6" cy="234.8" r="0.9" fill="#9ad1e0" fill-opacity="0.24"/><circle cx="734.7" cy="310.1" r="1.1" fill="#9ad1e0" fill-opacity="0.22"/><circle cx="753.6" cy="133.4" r="1.1" fill="#9ad1e0" fill-opacity="0.50"/><circle cx="695.6" cy="325.7" r="1.1" fill="#9ad1e0" fill-opacity="0.40"/><circle cx="683.9" cy="113.8" r="0.7" fill="#9ad1e0" fill-opacity="0.46"/><circle cx="632.6" cy="172.7" r="1.1" fill="#9ad1e0" fill-opacity="0.46"/><circle cx="782.2" cy="284.4" r="0.7" fill="#9ad1e0" fill-opacity="0.61"/><circle cx="781.1" cy="242.8" r="0.9" fill="#9ad1e0" fill-opacity="0.49"/><circle cx="749.1" cy="228.7" r="0.7" fill="#9ad1e0" fill-opacity="0.40"/><circle cx="701.2" cy="148.2" r="0.9" fill="#9ad1e0" fill-opacity="0.63"/><circle cx="812.6" cy="72.6" r="0.9" fill="#9ad1e0" fill-opacity="0.55"/><circle cx="883.2" cy="101.8" r="0.7" fill="#9ad1e0" fill-opacity="0.28"/><circle cx="794.5" cy="174.6" r="0.7" fill="#9ad1e0" fill-opacity="0.39"/><circle cx="678.4" cy="140.6" r="1.1" fill="#9ad1e0" fill-opacity="0.31"/><circle cx="898.2" cy="193.1" r="1.1" fill="#9ad1e0" fill-opacity="0.51"/><circle cx="894.7" cy="116.1" r="1.1" fill="#9ad1e0" fill-opacity="0.59"/><circle cx="654.6" cy="147.7" r="1.1" fill="#9ad1e0" fill-opacity="0.44"/><circle cx="677.0" cy="126.5" r="1.1" fill="#9ad1e0" fill-opacity="0.61"/><circle cx="640.2" cy="176.3" r="1.1" fill="#9ad1e0" fill-opacity="0.50"/><circle cx="905.2" cy="53.7" r="0.7" fill="#9ad1e0" fill-opacity="0.32"/><circle cx="750.5" cy="171.9" r="1.1" fill="#9ad1e0" fill-opacity="0.49"/><circle cx="696.0" cy="138.8" r="0.9" fill="#9ad1e0" fill-opacity="0.45"/><circle cx="925.3" cy="142.2" r="0.7" fill="#9ad1e0" fill-opacity="0.44"/><circle cx="929.8" cy="171.3" r="0.9" fill="#9ad1e0" fill-opacity="0.57"/><circle cx="692.3" cy="210.9" r="0.9" fill="#9ad1e0" fill-opacity="0.48"/><circle cx="669.9" cy="196.7" r="0.7" fill="#9ad1e0" fill-opacity="0.51"/><circle cx="762.1" cy="223.6" r="0.7" fill="#9ad1e0" fill-opacity="0.34"/><circle cx="762.5" cy="222.2" r="1.1" fill="#9ad1e0" fill-opacity="0.49"/><circle cx="844.2" cy="87.5" r="0.7" fill="#9ad1e0" fill-opacity="0.37"/><circle cx="759.3" cy="198.2" r="1.1" fill="#9ad1e0" fill-opacity="0.47"/><circle cx="904.5" cy="104.5" r="0.7" fill="#9ad1e0" fill-opacity="0.49"/><circle cx="716.0" cy="217.9" r="0.9" fill="#9ad1e0" fill-opacity="0.34"/><circle cx="887.3" cy="171.0" r="0.9" fill="#9ad1e0" fill-opacity="0.52"/><circle cx="917.5" cy="211.1" r="1.1" fill="#9ad1e0" fill-opacity="0.44"/><circle cx="751.8" cy="53.2" r="1.1" fill="#9ad1e0" fill-opacity="0.28"/><circle cx="661.6" cy="221.8" r="0.9" fill="#9ad1e0" fill-opacity="0.60"/><circle cx="707.5" cy="214.7" r="0.7" fill="#9ad1e0" fill-opacity="0.34"/><circle cx="655.6" cy="158.0" r="1.1" fill="#9ad1e0" fill-opacity="0.28"/><circle cx="685.4" cy="219.2" r="0.9" fill="#9ad1e0" fill-opacity="0.34"/><circle cx="685.3" cy="144.0" r="0.7" fill="#9ad1e0" fill-opacity="0.50"/><circle cx="897.6" cy="219.0" r="0.9" fill="#9ad1e0" fill-opacity="0.46"/><circle cx="791.1" cy="282.4" r="1.1" fill="#9ad1e0" fill-opacity="0.33"/><circle cx="826.9" cy="222.0" r="0.9" fill="#9ad1e0" fill-opacity="0.33"/><circle cx="758.0" cy="305.5" r="1.1" fill="#9ad1e0" fill-opacity="0.28"/><circle cx="904.9" cy="133.5" r="1.1" fill="#9ad1e0" fill-opacity="0.32"/><circle cx="784.1" cy="201.3" r="0.9" fill="#9ad1e0" fill-opacity="0.38"/><circle cx="660.8" cy="135.0" r="0.9" fill="#9ad1e0" fill-opacity="0.62"/><circle cx="822.2" cy="288.9" r="1.1" fill="#9ad1e0" fill-opacity="0.25"/><circle cx="786.3" cy="95.8" r="0.7" fill="#9ad1e0" fill-opacity="0.29"/><circle cx="682.8" cy="197.5" r="1.1" fill="#9ad1e0" fill-opacity="0.52"/><circle cx="670.7" cy="213.8" r="0.7" fill="#9ad1e0" fill-opacity="0.64"/><g clip-path="url(#front10)"><circle class="sat" r="2.7" fill="#9ad1e0" style="offset-path:path('M905.3 199.5 L902.7 195.1 L899.6 190.7 L896.0 186.2 L891.9 181.7 L887.3 177.1 L882.2 172.6 L876.7 168.0 L870.8 163.6 L864.5 159.2 L857.9 154.9 L850.9 150.7 L843.6 146.6 L836.1 142.7 L828.4 138.9 L820.5 135.4 L812.4 132.1 L804.3 128.9 L796.1 126.1 L787.9 123.4 L779.6 121.1 L771.5 119.0 L763.5 117.2 L755.6 115.7 L747.8 114.5 L740.3 113.6 L733.1 113.0 L726.1 112.8 L719.4 112.8 L713.1 113.2 L707.2 113.9 L701.7 114.9 L696.7 116.2 L692.1 117.9 L687.9 119.8 L684.3 122.0 L681.3 124.4 L678.7 127.1 L676.7 130.1 L675.3 133.3 L674.5 136.7 L674.2 140.4 L674.5 144.2 L675.3 148.2 L676.8 152.3 L678.7 156.5 L681.3 160.9 L684.4 165.3 L688.0 169.8 L692.1 174.3 L696.7 178.9 L701.8 183.4 L707.3 188.0 L713.2 192.4 L719.5 196.8 L726.1 201.1 L733.1 205.3 L740.4 209.4 L747.9 213.3 L755.6 217.1 L763.5 220.6 L771.6 223.9 L779.7 227.1 L787.9 229.9 L796.1 232.6 L804.4 234.9 L812.5 237.0 L820.5 238.8 L828.4 240.3 L836.2 241.5 L843.7 242.4 L850.9 243.0 L857.9 243.2 L864.6 243.2 L870.9 242.8 L876.8 242.1 L882.3 241.1 L887.3 239.8 L891.9 238.1 L896.1 236.2 L899.7 234.0 L902.7 231.6 L905.3 228.9 L907.3 225.9 L908.7 222.7 L909.5 219.3 L909.8 215.6 L909.5 211.8 L908.7 207.8 L907.2 203.7 L905.3 199.5 Z');animation-duration:26s;animation-delay:-3s"/></g><g clip-path="url(#front11)"><circle class="sat" r="2.7" fill="#9ad1e0" style="offset-path:path('M713.5 238.0 L715.1 227.7 L717.1 217.0 L719.5 206.2 L722.2 195.3 L725.3 184.2 L728.6 173.1 L732.3 162.1 L736.3 151.1 L740.6 140.3 L745.1 129.6 L749.8 119.2 L754.7 109.1 L759.9 99.3 L765.1 89.9 L770.5 80.9 L776.1 72.4 L781.6 64.4 L787.3 56.9 L792.9 50.1 L798.6 43.8 L804.2 38.3 L809.8 33.4 L815.3 29.2 L820.6 25.7 L825.9 23.0 L830.9 21.0 L835.8 19.8 L840.5 19.4 L844.9 19.7 L849.0 20.8 L852.9 22.7 L856.5 25.3 L859.8 28.7 L862.7 32.8 L865.3 37.6 L867.6 43.1 L869.5 49.3 L871.0 56.1 L872.1 63.4 L872.8 71.4 L873.1 79.8 L873.1 88.7 L872.6 98.1 L871.7 107.9 L870.5 118.0 L868.9 128.3 L866.9 139.0 L864.5 149.8 L861.8 160.7 L858.7 171.8 L855.4 182.9 L851.7 193.9 L847.7 204.9 L843.4 215.7 L838.9 226.4 L834.2 236.8 L829.3 246.9 L824.1 256.7 L818.9 266.1 L813.5 275.1 L807.9 283.6 L802.4 291.6 L796.7 299.1 L791.1 305.9 L785.4 312.2 L779.8 317.7 L774.2 322.6 L768.7 326.8 L763.4 330.3 L758.1 333.0 L753.1 335.0 L748.2 336.2 L743.5 336.6 L739.1 336.3 L735.0 335.2 L731.1 333.3 L727.5 330.7 L724.2 327.3 L721.3 323.2 L718.7 318.4 L716.4 312.9 L714.5 306.7 L713.0 299.9 L711.9 292.6 L711.2 284.6 L710.9 276.2 L710.9 267.3 L711.4 257.9 L712.3 248.1 L713.5 238.0 Z');animation-duration:38s;animation-delay:-14s"/></g><g clip-path="url(#front12)"><circle class="sat" r="2.7" fill="#9ad1e0" style="offset-path:path('M600.6 141.7 L606.6 130.7 L613.4 119.9 L621.2 109.4 L629.7 99.2 L639.1 89.4 L649.2 80.0 L660.0 71.1 L671.4 62.8 L683.5 55.0 L696.0 47.8 L709.1 41.2 L722.5 35.3 L736.3 30.1 L750.3 25.6 L764.5 21.9 L778.9 18.9 L793.4 16.7 L807.8 15.3 L822.2 14.6 L836.4 14.8 L850.4 15.8 L864.1 17.5 L877.4 20.0 L890.4 23.3 L902.9 27.4 L914.8 32.2 L926.1 37.7 L936.8 43.9 L946.7 50.7 L956.0 58.2 L964.4 66.2 L971.9 74.8 L978.6 83.9 L984.4 93.4 L989.3 103.4 L993.2 113.7 L996.1 124.4 L998.0 135.3 L998.9 146.4 L998.8 157.6 L997.7 169.0 L995.6 180.4 L992.5 191.8 L988.4 203.1 L983.4 214.3 L977.4 225.3 L970.6 236.1 L962.8 246.6 L954.3 256.8 L944.9 266.6 L934.8 276.0 L924.0 284.9 L912.6 293.2 L900.5 301.0 L888.0 308.2 L874.9 314.8 L861.5 320.7 L847.7 325.9 L833.7 330.4 L819.5 334.1 L805.1 337.1 L790.6 339.3 L776.2 340.7 L761.8 341.4 L747.6 341.2 L733.6 340.2 L719.9 338.5 L706.6 336.0 L693.6 332.7 L681.1 328.6 L669.2 323.8 L657.9 318.3 L647.2 312.1 L637.3 305.3 L628.0 297.8 L619.6 289.8 L612.1 281.2 L605.4 272.1 L599.6 262.6 L594.7 252.6 L590.8 242.3 L587.9 231.6 L586.0 220.7 L585.1 209.6 L585.2 198.4 L586.3 187.0 L588.4 175.6 L591.5 164.2 L595.6 152.9 L600.6 141.7 Z');animation-duration:54s;animation-delay:-30s"/></g><path d="M20 44V20H44" fill="none" stroke="#78828f" stroke-opacity=".7"/><path d="M956 20H980V44" fill="none" stroke="#78828f" stroke-opacity=".7"/><path d="M20 296V320H44" fill="none" stroke="#78828f" stroke-opacity=".7"/><path d="M956 320H980V296" fill="none" stroke="#78828f" stroke-opacity=".7"/><circle class="cring" cx="642" cy="104" r="12" fill="none" stroke="#e3a33b" stroke-width="1.2"/><circle cx="642" cy="104" r="15" fill="none" stroke="#e3a33b" stroke-opacity=".5" stroke-width=".8"/><circle class="ca" cx="638.6" cy="105.6" r="2" fill="#e8ecf1"/><circle class="cb" cx="645.4" cy="102.4" r="2" fill="#e3a33b"/><g class="cd0"><text x="664" y="107" class="m" font-size="9" font-weight="500" fill="#e3a33b" letter-spacing="1.4" text-anchor="start">T−03</text></g><g class="cd1"><text x="664" y="107" class="m" font-size="9" font-weight="500" fill="#e3a33b" letter-spacing="1.4" text-anchor="start">T−02</text></g><g class="cd2"><text x="664" y="107" class="m" font-size="9" font-weight="500" fill="#e3a33b" letter-spacing="1.4" text-anchor="start">T−01</text></g><g class="cd3"><text x="664" y="107" class="m" font-size="9" font-weight="500" fill="#e3a33b" letter-spacing="1.4" text-anchor="start">TCA</text></g><g class="bt" style="animation-delay:0.00s"><text x="56" y="138" class="m" font-size="13" font-weight="500" fill="#9ad1e0" text-anchor="start">[ ok ]</text><text x="124" y="138" class="m" font-size="13" font-weight="400" fill="#98a2b0" text-anchor="start">firmware</text></g><g class="bt" style="animation-delay:0.22s"><text x="56" y="160" class="m" font-size="13" font-weight="500" fill="#9ad1e0" text-anchor="start">[ ok ]</text><text x="124" y="160" class="m" font-size="13" font-weight="400" fill="#98a2b0" text-anchor="start">backend</text></g><g class="bt" style="animation-delay:0.44s"><text x="56" y="182" class="m" font-size="13" font-weight="500" fill="#9ad1e0" text-anchor="start">[ ok ]</text><text x="124" y="182" class="m" font-size="13" font-weight="400" fill="#98a2b0" text-anchor="start">machine learning</text></g><g class="bt" style="animation-delay:0.66s"><text x="56" y="204" class="m" font-size="13" font-weight="500" fill="#9ad1e0" text-anchor="start">[ ok ]</text><text x="124" y="204" class="m" font-size="13" font-weight="400" fill="#98a2b0" text-anchor="start">interface</text></g><g class="bt" style="animation-delay:0.88s"><text x="56" y="226" class="m" font-size="13" font-weight="500" fill="#e8ecf1" text-anchor="start">&gt; madhur.rishi.sikarwar online</text></g><g class="rv" style="animation-delay:2.35s"><rect x="56" y="52" width="26" height="2" fill="#9ad1e0"/><text x="56" y="86" class="m" font-size="11.5" font-weight="500" fill="#78828f" letter-spacing="1.9" text-anchor="start">RVCE  ·  B.E. INFORMATION SCIENCE  ·  2028</text></g><g class="rv" style="animation-delay:2.45s"><text x="56" y="154" font-size="60" font-weight="700" fill="#e8ecf1" letter-spacing="-1.6" text-anchor="start">Madhur Rishi</text><text x="56" y="216" font-size="60" font-weight="700" fill="#e8ecf1" letter-spacing="-1.6" text-anchor="start">Sikarwar</text></g><g class="rv" style="animation-delay:2.65s"><text x="56" y="256" font-size="17" font-weight="400" fill="#98a2b0" text-anchor="start">Building systems that survive the real world.</text></g><g class="rv" style="animation-delay:2.8s"><text x="56" y="286" class="m" font-size="12.5" font-weight="400" fill="#78828f" letter-spacing="0.6" text-anchor="start">firmware  →  backend  →  ML  →  interface</text></g><rect x=".5" y=".5" width="999" height="339" rx="14" fill="none" stroke="#1d232c"/></svg>
