<svg xmlns="http://www.w3.org/2000/svg" viewBox="0 0 1000 190" width="1000" height="190" role="img" aria-labelledby="t d"><title id="t">End of transmission</title><desc id="d">Engineering with purpose. Research over hype. Madhur Rishi Sikarwar.</desc><defs><linearGradient id="limb" x1="0" x2="1"><stop offset="0" stop-color="#9ad1e0" stop-opacity="0"/><stop offset=".5" stop-color="#9ad1e0" stop-opacity=".75"/><stop offset="1" stop-color="#9ad1e0" stop-opacity="0"/></linearGradient><filter id="blur" x="-10%" y="-50%" width="120%" height="200%"><feGaussianBlur stdDeviation="9"/></filter><style>text{font-family:'SF Pro Display','Segoe UI Variable Display','Segoe UI',Inter,Roboto,'Helvetica Neue',Arial,sans-serif;fill:#e8ecf1}.m{font-family:'SF Mono','Cascadia Code','JetBrains Mono',Consolas,Menlo,monospace}.pulse{animation:pulse 2.6s ease-in-out infinite}@keyframes pulse{0%,100%{opacity:1}50%{opacity:.3}}.ring{transform-box:fill-box;transform-origin:center;animation:ring 3.4s ease-out infinite}@keyframes ring{0%{transform:scale(.55);opacity:.95}100%{transform:scale(1.8);opacity:0}}.sat{animation:orb linear infinite}@keyframes orb{from{offset-distance:0%}to{offset-distance:100%}}@media (prefers-reduced-motion:reduce){.pulse,.ring,.sat{animation:none}}@media (prefers-reduced-motion:reduce){*{animation:none!important}.f0,.f1,.f2,.hit,.fd0,.fd1,.fd2,.smp,.vote,.lit,.blk,.bt0{opacity:1!important}.head,.head2,.play,.bt{display:none}}</style></defs><rect width="1000" height="190" rx="14" fill="#0b0e12"/><circle cx="383" cy="30" r="0.5" fill="#e8ecf1" fill-opacity="0.30"/><circle cx="387" cy="92" r="0.7" fill="#e8ecf1" fill-opacity="0.21"/><circle cx="385" cy="77" r="0.9" fill="#e8ecf1" fill-opacity="0.08"/><circle cx="253" cy="102" r="0.5" fill="#e8ecf1" fill-opacity="0.19"/><circle cx="161" cy="22" r="0.9" fill="#e8ecf1" fill-opacity="0.16"/><circle cx="261" cy="73" r="0.9" fill="#e8ecf1" fill-opacity="0.09"/><circle cx="780" cy="11" r="0.7" fill="#e8ecf1" fill-opacity="0.28"/><circle cx="220" cy="76" r="0.9" fill="#e8ecf1" fill-opacity="0.19"/><circle cx="554" cy="10" r="0.5" fill="#e8ecf1" fill-opacity="0.30"/><circle cx="686" cy="100" r="0.5" fill="#e8ecf1" fill-opacity="0.14"/><circle cx="230" cy="10" r="0.9" fill="#e8ecf1" fill-opacity="0.12"/><circle cx="882" cy="88" r="0.7" fill="#e8ecf1" fill-opacity="0.18"/><circle cx="113" cy="17" r="0.5" fill="#e8ecf1" fill-opacity="0.24"/><circle cx="493" cy="45" r="0.5" fill="#e8ecf1" fill-opacity="0.10"/><circle cx="85" cy="97" r="0.7" fill="#e8ecf1" fill-opacity="0.18"/><circle cx="741" cy="59" r="0.5" fill="#e8ecf1" fill-opacity="0.24"/><circle cx="325" cy="21" r="0.5" fill="#e8ecf1" fill-opacity="0.25"/><circle cx="717" cy="72" r="0.5" fill="#e8ecf1" fill-opacity="0.32"/><circle cx="702" cy="92" r="0.7" fill="#e8ecf1" fill-opacity="0.24"/><circle cx="746" cy="65" r="0.7" fill="#e8ecf1" fill-opacity="0.22"/><circle cx="106" cy="97" r="0.5" fill="#e8ecf1" fill-opacity="0.18"/><circle cx="730" cy="72" r="0.7" fill="#e8ecf1" fill-opacity="0.27"/><circle cx="90" cy="71" r="0.9" fill="#e8ecf1" fill-opacity="0.13"/><circle cx="683" cy="34" r="0.9" fill="#e8ecf1" fill-opacity="0.16"/><circle cx="918" cy="44" r="0.7" fill="#e8ecf1" fill-opacity="0.26"/><circle cx="728" cy="28" r="0.5" fill="#e8ecf1" fill-opacity="0.13"/><circle cx="230" cy="52" r="0.5" fill="#e8ecf1" fill-opacity="0.10"/><circle cx="241" cy="61" r="0.5" fill="#e8ecf1" fill-opacity="0.20"/><circle cx="128" cy="44" r="0.9" fill="#e8ecf1" fill-opacity="0.11"/><circle cx="990" cy="64" r="0.9" fill="#e8ecf1" fill-opacity="0.13"/><circle cx="769" cy="45" r="0.7" fill="#e8ecf1" fill-opacity="0.29"/><circle cx="817" cy="11" r="0.9" fill="#e8ecf1" fill-opacity="0.25"/><circle cx="160" cy="22" r="0.9" fill="#e8ecf1" fill-opacity="0.24"/><circle cx="182" cy="76" r="0.5" fill="#e8ecf1" fill-opacity="0.09"/><circle cx="664" cy="73" r="0.5" fill="#e8ecf1" fill-opacity="0.24"/><circle cx="915" cy="93" r="0.7" fill="#e8ecf1" fill-opacity="0.15"/><circle cx="500" cy="1372" r="1250" fill="none" stroke="#9ad1e0" stroke-opacity=".28" stroke-width="16" filter="url(#blur)"/><circle cx="500" cy="1372" r="1250" fill="#090c10" stroke="url(#limb)" stroke-width="1.6"/><circle class="sat" r="2.8" fill="#9ad1e0" style="offset-path:path('M-40 217 A1275 1275 0 0 1 1040 217');animation-duration:46s"/><text x="500" y="52" font-size="19" font-weight="400" fill="#98a2b0" text-anchor="middle">Engineering with purpose. Research over hype.</text><text x="500" y="78" class="m" font-size="10.5" font-weight="500" fill="#78828f" letter-spacing="2.2" text-anchor="middle">END OF TRANSMISSION  ·  MADHUR RISHI SIKARWAR</text><rect x=".5" y=".5" width="999" height="189" rx="14" fill="none" stroke="#1d232c"/></svg>
