<svg xmlns="http://www.w3.org/2000/svg" viewBox="0 0 436 286" width="436" height="286" role="img" aria-labelledby="t d"><title id="t">fIndia-AI</title><desc id="d">fIndia-AI. FinBERT adapted to Indian financial text: batch inference over headlines, with sentiment correlated to live asset prices. Built with PyTorch, FinBERT, Pandas.</desc><defs><style>text{font-family:'SF Pro Display','Segoe UI Variable Display','Segoe UI',Inter,Roboto,'Helvetica Neue',Arial,sans-serif}.m{font-family:'SF Mono','Cascadia Code','JetBrains Mono',Consolas,Menlo,monospace}.sf{font-family:'Iowan Old Style','Palatino Linotype',Palatino,Georgia,'Times New Roman',serif}@keyframes pulse{0%,100%{opacity:1}50%{opacity:.3}}.pulse{animation:pulse 2.6s ease-in-out infinite}@keyframes ring{0%{transform:scale(.55);opacity:.95}100%{transform:scale(1.8);opacity:0}}.ring{transform-box:fill-box;transform-origin:center;animation:ring 3.4s ease-out infinite}@keyframes orb{from{offset-distance:0%}to{offset-distance:100%}}.sat{animation:orb linear infinite}@keyframes blink{0%,49%{opacity:1}50%,100%{opacity:0}}.blink{animation:blink 1.1s steps(1) infinite}@media (prefers-reduced-motion:reduce){*{animation:none!important}.rm{opacity:1!important}.nm{display:none}}@keyframes hl{0%,30%{transform:translateY(0)}33.3%,63%{transform:translateY(25px)}66.6%,96%{transform:translateY(50px)}100%{transform:translateY(0)}}.hl{animation:hl 6s steps(1) infinite}@keyframes pxd{0%{stroke-dashoffset:260}60%,100%{stroke-dashoffset:0}}.px{stroke-dasharray:260;animation:pxd 6s ease-out infinite}@keyframes bar{0%{transform:scaleY(0)}30%,100%{transform:scaleY(1)}}.bar{transform-box:fill-box;transform-origin:50% 100%;animation:bar 6s ease-out infinite}@keyframes tg0{0%{opacity:0}0.99%{opacity:0}1.00%{opacity:1}31.99%{opacity:1}32.00%{opacity:0}100%{opacity:0}}.tg0{animation:tg0 6s linear infinite;opacity:0}@keyframes tg1{0%{opacity:0}34.32%{opacity:0}34.33%{opacity:1}65.32%{opacity:1}65.33%{opacity:0}100%{opacity:0}}.tg1{animation:tg1 6s linear infinite;opacity:0}@keyframes tg2{0%{opacity:0}67.65%{opacity:0}67.66%{opacity:1}98.65%{opacity:1}98.66%{opacity:0}100%{opacity:0}}.tg2{animation:tg2 6s linear infinite;opacity:0}.px{animation-delay:-3.8s}</style></defs><rect x=".5" y=".5" width="435" height="269" rx="3" fill="#fff1e5" stroke="#e1cdbb"/><clipPath id="cp"><rect x=".5" y=".5" width="435" height="269" rx="3"/></clipPath><g clip-path="url(#cp)"><g transform="translate(372 6)" fill="none" stroke="#990f3d" stroke-opacity=".13" stroke-width="3.6" stroke-linecap="round" stroke-linejoin="round"><path d="M4 6H34M4 17H34M10 6H18a11 11 0 0 1 0 22H10M10 28L30 48"/></g><text x="22" y="27" font-size="9.5" font-weight="700" fill="#990f3d" letter-spacing="2.2">AI · TEAM</text><text x="22" y="62" class="sf" font-size="33" font-weight="700" fill="#33302e" letter-spacing="-0.8">fIndia-AI</text><rect x="22" y="69" width="392" height="2.4" fill="#33302e"/><rect x="22" y="73" width="392" height="1" fill="#33302e"/><line x1="209" x2="209" y1="82" y2="154" stroke="#d9c6b6"/><rect class="hl" x="16" y="82" width="188" height="24" rx="2" fill="#f6dcc6"/><path d="M22 97L27 90L32 97Z" fill="#0d7680"/><rect x="40" y="88" width="150" height="4.6" rx="2.3" fill="#c4b5a8"/><rect x="40" y="96" width="104" height="4.6" rx="2.3" fill="#c4b5a8" fill-opacity=".75"/><path d="M22 115L27 122L32 115Z" fill="#990f3d"/><rect x="40" y="113" width="124" height="4.6" rx="2.3" fill="#c4b5a8"/><rect x="40" y="121" width="96" height="4.6" rx="2.3" fill="#c4b5a8" fill-opacity=".75"/><circle cx="27" cy="144" r="3" fill="#8f8680"/><rect x="40" y="138" width="142" height="4.6" rx="2.3" fill="#c4b5a8"/><rect x="40" y="146" width="118" height="4.6" rx="2.3" fill="#c4b5a8" fill-opacity=".75"/><g class="tg0"><rect x="164" y="84" width="36" height="14" rx="2" fill="#0d7680"/><text x="182" y="94.5" font-size="8" font-weight="700" fill="#fff" letter-spacing="1" text-anchor="middle">POS</text></g><g class="tg1"><rect x="164" y="109" width="36" height="14" rx="2" fill="#990f3d"/><text x="182" y="119.5" font-size="8" font-weight="700" fill="#fff" letter-spacing="1" text-anchor="middle">NEG</text></g><g class="tg2"><rect x="164" y="134" width="36" height="14" rx="2" fill="#8f8680"/><text x="182" y="144.5" font-size="8" font-weight="700" fill="#fff" letter-spacing="1" text-anchor="middle">NEU</text></g><line x1="222" x2="414" y1="128" y2="128" stroke="#d9c6b6"/><line x1="222" x2="414" y1="150" y2="150" stroke="#d9c6b6"/><path class="px" d="M222.0 110.4 L230.0 107.9 L238.0 104.9 L246.0 100.8 L254.0 98.3 L262.0 94.3 L270.0 97.5 L278.0 97.1 L286.0 93.0 L294.0 91.2 L302.0 87.4 L310.0 89.9 L318.0 89.5 L326.0 90.9 L334.0 90.0 L342.0 88.8 L350.0 92.1 L358.0 93.8 L366.0 94.9 L374.0 91.0 L382.0 88.3 L390.0 90.4 L398.0 87.4 L406.0 89.7 L414.0 88.2" fill="none" stroke="#33302e" stroke-width="1.5" stroke-linejoin="round"/><rect class="bar" x="220" y="145.5" width="4.4" height="4.5" fill="#990f3d" style="animation-delay:-3.80s"/><rect class="bar" x="228" y="136.5" width="4.4" height="13.5" fill="#990f3d" style="animation-delay:-3.73s"/><rect class="bar" x="236" y="144.4" width="4.4" height="5.6" fill="#0d7680" style="animation-delay:-3.66s"/><rect class="bar" x="244" y="136.5" width="4.4" height="13.5" fill="#990f3d" style="animation-delay:-3.59s"/><rect class="bar" x="252" y="135.5" width="4.4" height="14.5" fill="#0d7680" style="animation-delay:-3.52s"/><rect class="bar" x="260" y="138.9" width="4.4" height="11.1" fill="#990f3d" style="animation-delay:-3.45s"/><rect class="bar" x="268" y="135.7" width="4.4" height="14.3" fill="#0d7680" style="animation-delay:-3.38s"/><rect class="bar" x="276" y="135.4" width="4.4" height="14.6" fill="#0d7680" style="animation-delay:-3.31s"/><rect class="bar" x="284" y="143.4" width="4.4" height="6.6" fill="#990f3d" style="animation-delay:-3.24s"/><rect class="bar" x="292" y="145.0" width="4.4" height="5.0" fill="#990f3d" style="animation-delay:-3.17s"/><rect class="bar" x="300" y="146.2" width="4.4" height="3.8" fill="#990f3d" style="animation-delay:-3.10s"/><rect class="bar" x="308" y="139.8" width="4.4" height="10.2" fill="#990f3d" style="animation-delay:-3.03s"/><rect class="bar" x="316" y="138.9" width="4.4" height="11.1" fill="#990f3d" style="animation-delay:-2.96s"/><rect class="bar" x="324" y="143.3" width="4.4" height="6.7" fill="#0d7680" style="animation-delay:-2.89s"/><rect class="bar" x="332" y="141.2" width="4.4" height="8.8" fill="#990f3d" style="animation-delay:-2.82s"/><rect class="bar" x="340" y="141.2" width="4.4" height="8.8" fill="#0d7680" style="animation-delay:-2.75s"/><rect class="bar" x="348" y="146.3" width="4.4" height="3.7" fill="#0d7680" style="animation-delay:-2.68s"/><rect class="bar" x="356" y="146.7" width="4.4" height="3.3" fill="#0d7680" style="animation-delay:-2.61s"/><rect class="bar" x="364" y="136.9" width="4.4" height="13.1" fill="#990f3d" style="animation-delay:-2.54s"/><rect class="bar" x="372" y="137.5" width="4.4" height="12.5" fill="#990f3d" style="animation-delay:-2.47s"/><rect class="bar" x="380" y="140.1" width="4.4" height="9.9" fill="#990f3d" style="animation-delay:-2.40s"/><rect class="bar" x="388" y="146.4" width="4.4" height="3.6" fill="#990f3d" style="animation-delay:-2.33s"/><rect class="bar" x="396" y="135.5" width="4.4" height="14.5" fill="#990f3d" style="animation-delay:-2.26s"/><rect class="bar" x="404" y="137.9" width="4.4" height="12.1" fill="#0d7680" style="animation-delay:-2.19s"/><rect class="bar" x="412" y="135.7" width="4.4" height="14.3" fill="#990f3d" style="animation-delay:-2.12s"/><text x="222" y="83" font-size="7.6" font-weight="700" fill="#8f8680" letter-spacing="1.4">PRICE</text><text x="414" y="83" font-size="7.6" font-weight="700" fill="#8f8680" letter-spacing="1.4" text-anchor="end">HEADLINE SENTIMENT</text><text x="22" y="180" class="sf" font-size="13" font-weight="400" fill="#66605c">FinBERT adapted to Indian financial text: batch</text><text x="22" y="197.5" class="sf" font-size="13" font-weight="400" fill="#66605c">inference over headlines, with sentiment correlated</text><text x="22" y="215" class="sf" font-size="13" font-weight="400" fill="#66605c">to live asset prices.</text><rect x="1" y="232" width="434" height="37" fill="#f7e2d0"/><line x1="0" x2="436" y1="232.5" y2="232.5" stroke="#d9c6b6"/><text x="22" y="255" class="sf" font-size="12.5" font-weight="400" fill="#990f3d" font-style="italic">PyTorch  ·  FinBERT  ·  Pandas</text><path d="M290 252L294 246L298 252Z" fill="#0d7680"/><text x="303" y="252" font-size="7.8" font-weight="700" fill="#66605c" letter-spacing="1.2">POSITIVE</text><path d="M358 246L362 252L366 246Z" fill="#990f3d"/><text x="371" y="252" font-size="7.8" font-weight="700" fill="#66605c" letter-spacing="1.2">NEGATIVE</text></g></svg>
